<svg fill="none" height="54" viewBox="0 0 70 54" width="70" xmlns="http://www.w3.org/2000/svg">
<path d="M34.4861 43.4229L34.8826 43.9389L35.279 43.4229C36.0648 42.4002 36.9255 41.4323 37.8054 40.505C38.7001 39.5622 39.6397 38.636 40.5618 37.7291L40.6611 37.6314L40.6634 37.6291C41.558 36.7494 42.4355 35.8863 43.2817 35.005C46.8179 31.3219 49.4395 27.6758 49.4395 22.8826C49.4395 14.843 42.9221 8.32564 34.8826 8.32564C26.843 8.32564 20.3256 14.843 20.3256 22.8826C20.3256 27.6758 22.9473 31.3219 26.4835 35.005C27.3295 35.8862 28.2068 36.7491 29.1012 37.6286L29.1039 37.6313L29.2033 37.7291C30.1255 38.636 31.0651 39.5622 31.9597 40.505C32.8396 41.4323 33.7003 42.4002 34.4861 43.4229ZM43.3603 40.3425L43.7109 40.699L43.3603 40.3426L43.2444 40.4566L43.595 40.813L43.2444 40.4566C42.317 41.3688 41.423 42.2505 40.5806 43.1383C38.8878 44.9222 37.4966 46.6364 36.5934 48.4426C36.2694 49.0907 35.6071 49.5 34.8826 49.5C34.158 49.5 33.4957 49.0907 33.1717 48.4426C32.2686 46.6364 30.8773 44.9222 29.1846 43.1383C28.3421 42.2505 27.4482 41.3688 26.5207 40.4566L26.1701 40.813L26.5207 40.4566L26.4047 40.3424L26.0541 40.6989L26.4047 40.3424C25.5208 39.4732 24.6083 38.5758 23.7238 37.6546C20.0546 33.8328 16.5 29.2441 16.5 22.8826C16.5 12.7302 24.7302 4.5 34.8826 4.5C45.035 4.5 53.2651 12.7302 53.2651 22.8826C53.2651 29.2441 49.7106 33.8328 46.0413 37.6546C45.1568 38.5758 44.2443 39.4733 43.3603 40.3425Z" fill="#FF5959" stroke="#FF5959"/>
<path d="M31 19L35.4399 23.5M35.4399 23.5L40 19M35.4399 23.5L40 28M35.4399 23.5L31 27.8814" stroke="#FF5959" stroke-linecap="round" stroke-linejoin="round" stroke-width="4"/>
</svg>
